<?xml version="1.0" standalone="no"?>
<!DOCTYPE svg PUBLIC "-//W3C//DTD SVG 20010904//EN"
 "http://www.w3.org/TR/2001/REC-SVG-20010904/DTD/svg10.dtd">
<svg version="1.0" xmlns="http://www.w3.org/2000/svg"
 width="608.000000pt" height="689.000000pt" viewBox="0 0 608.000000 689.000000"
 preserveAspectRatio="xMidYMid meet">

<g transform="translate(0.000000,689.000000) scale(0.100000,-0.100000)"
fill="#000000" stroke="none">
<path d="M1007 5904 c-6 -6 -51 -9 -284 -17 -60 -2 -76 -6 -97 -26 -14 -14
-26 -30 -26 -38 0 -7 -7 -13 -15 -13 -8 0 -17 -11 -21 -25 -3 -14 -10 -22 -15
-19 -5 3 -9 -2 -9 -10 0 -8 -8 -23 -18 -33 -10 -10 -31 -38 -46 -63 -16 -25
-37 -57 -47 -71 -35 -52 -161 -295 -199 -384 -43 -101 -108 -307 -139 -435
-72 -307 -85 -699 -35 -1020 131 -834 684 -1592 1435 -1971 339 -170 674 -263
1040 -288 154 -10 504 -1 529 14 3 2 29 6 59 10 30 4 63 9 75 11 12 2 35 7 51
10 201 36 535 158 745 272 47 25 105 56 130 68 55 26 269 172 300 204 8 8 74
56 90 65 11 6 11 4 -2 -11 -13 -14 -14 -23 -6 -38 8 -14 12 -16 19 -5 6 11 9
10 14 -3 4 -10 14 -14 26 -11 11 3 21 -1 25 -10 3 -9 21 -21 40 -27 19 -6 34
-16 34 -21 0 -6 5 -7 10 -4 6 3 10 2 10 -3 0 -7 65 -45 82 -46 3 -1 10 -4 14
-8 4 -4 13 -3 21 3 29 25 12 -16 -41 -95 -67 -101 -122 -172 -206 -266 -36
-40 -65 -76 -65 -80 0 -14 563 -584 618 -625 31 -24 94 -58 140 -76 73 -29 95
-33 197 -36 77 -2 133 2 170 12 209 55 381 226 435 432 24 93 20 250 -9 336
-50 148 -27 121 -652 757 -331 338 -394 404 -394 419 0 6 8 24 19 39 79 115
194 369 266 587 70 214 99 374 117 642 34 521 -78 1012 -338 1475 -49 87 -73
125 -154 242 -24 34 -74 100 -88 114 -11 12 -83 23 -137 21 -27 0 -30 0 -105
6 -36 3 -81 5 -100 5 -103 -3 -319 -1 -344 3 l-30 5 40 -34 c21 -19 44 -38 49
-42 6 -5 42 -43 80 -84 l70 -76 225 54 c124 29 234 55 245 56 30 4 30 6 -84
-432 -23 -85 -41 -163 -41 -172 0 -9 14 -46 30 -82 55 -118 121 -331 149 -476
54 -286 47 -639 -19 -916 -73 -305 -228 -620 -425 -863 -82 -101 -103 -123
-113 -118 -4 3 -7 186 -4 405 l3 400 -68 -2 c-38 -1 -73 -4 -78 -7 -6 -2 -29
-3 -52 -2 -59 4 -56 4 -160 0 -51 -2 -93 -1 -93 2 0 3 -27 6 -60 5 -33 -1 -60
2 -60 5 0 3 -21 5 -47 3 -27 -2 -71 -4 -99 -4 l-51 -2 -7 -74 c-3 -41 -7 -215
-7 -386 -1 -171 -5 -443 -8 -605 l-6 -294 -55 -19 c-88 -31 -301 -88 -326 -88
l-24 0 1 385 c0 212 -2 389 -5 394 -6 9 -48 7 -65 -4 -6 -3 -11 -2 -11 2 0 5
-35 7 -77 6 -76 -3 -104 -3 -160 -3 -16 1 -44 -2 -63 -5 -36 -5 -42 -10 -274
-237 -138 -134 -124 -94 -125 -367 l-1 -173 -47 6 c-64 9 -312 83 -340 102
-22 14 -23 16 -23 267 l0 252 -155 154 c-116 116 -158 152 -167 143 -8 -8 -18
-7 -39 4 -16 8 -29 11 -29 6 0 -8 -44 -7 -102 1 -16 2 -28 0 -28 -5 0 -5 -8
-5 -17 0 -10 4 -29 7 -43 5 -31 -5 -138 -5 -165 -1 -19 3 -20 -3 -23 -132 -1
-74 -6 -138 -11 -143 -16 -16 -151 146 -259 311 -166 252 -287 595 -332 937
-6 50 -12 158 -12 240 1 443 117 835 357 1200 42 63 86 126 98 139 12 14 33
40 47 58 14 18 33 40 43 50 9 10 17 20 17 23 0 7 120 125 193 188 31 28 57 54
57 59 0 4 -15 5 -32 2 -18 -3 -37 -6 -43 -5 -5 1 -62 2 -125 3 -63 2 -118 6
-121 10 -3 5 -8 5 -12 2z m3824 -3917 c-10 -9 -11 -8 -5 6 3 10 9 15 12 12 3
-3 0 -11 -7 -18z"/>
</g>
</svg>
